<svg xmlns="http://www.w3.org/2000/svg" width="997.175" height="655.323" viewBox="0 0 997.175 655.323">
  <g id="undraw_for_sale_re_egkk" transform="translate(0)">
    <path id="Path_1696" data-name="Path 1696" d="M1009.95,681.834h-401.6c-10.924,0-19.811-9.832-19.811-21.916V361.267a12.3,12.3,0,0,1,6.543-11.124l151.759-91.871a60.337,60.337,0,0,1,53.543-.054l222.793,91.916a12.305,12.305,0,0,1,6.583,11.143V659.918C1029.76,672,1020.87,681.834,1009.95,681.834Z" transform="translate(-101.412 -217.27)" fill="#f2f2f2"/>
    <path id="Path_1697" data-name="Path 1697" d="M950.646,681.51H605.783c-9.419,0-17.083-6.939-17.083-15.47V457.281a8.676,8.676,0,0,1,5.692-7.927l160.575-64.232a62.516,62.516,0,0,1,45.938-.023l161.12,64.259a8.675,8.675,0,0,1,5.7,7.93V666.04C967.729,674.571,960.065,681.51,950.646,681.51Z" transform="translate(-101.412 -217.27)" fill="#a11b05"/>
    <circle id="Ellipse_104" data-name="Ellipse 104" cx="50.532" cy="50.532" r="50.532" transform="translate(248.153 143.948)" fill="#ff6584"/>
    <ellipse id="Ellipse_105" data-name="Ellipse 105" cx="64.001" cy="80.11" rx="64.001" ry="80.11" transform="translate(255.809 218.237)" fill="#f2f2f2"/>
    <path id="Path_1698" data-name="Path 1698" d="M319.986,282.238h.176l3.165,181.452h-6.681Z" fill="#ccc"/>
    <path id="Path_1699" data-name="Path 1699" d="M432.315,619.635h0a1.583,1.583,0,0,1-.663,2.137l-9.179,4.833L421,623.8l9.179-4.833a1.583,1.583,0,0,1,2.137.663Z" transform="translate(-101.412 -217.27)" fill="#ccc"/>
    <ellipse id="Ellipse_106" data-name="Ellipse 106" cx="64.001" cy="80.11" rx="64.001" ry="80.11" transform="translate(71.809 218.237)" fill="#f2f2f2"/>
    <path id="Path_1700" data-name="Path 1700" d="M248.315,622.635h0a1.583,1.583,0,0,0-2.138-.663l-6.408,3.374-2.195-125.838H237.4l-3.34,181.452h6.681l-.908-52.07,7.821-4.117a1.583,1.583,0,0,0,.663-2.137Z" transform="translate(-101.412 -217.27)" fill="#ccc"/>
    <path id="Path_1701" data-name="Path 1701" d="M329,331c44.788,0,81.192,84.391,81.192,140.452S373.884,572.96,329.1,572.96,248,527.514,248,471.452,284.212,331,329,331Z" transform="translate(-101.412 -217.27)" fill="#a11b05"/>
    <path id="Path_1702" data-name="Path 1702" d="M343.15,607.056a2,2,0,0,0-2.708-.84l-8.12,4.275-2.78-159.45h-.223l-4.233,229.92h8.466L332.4,614.982l9.91-5.217a2,2,0,0,0,.839-2.709Z" transform="translate(-101.412 -217.27)" fill="#3f3d56"/>
    <path id="Path_1703" data-name="Path 1703" d="M697.693,538.049V516.458a10.618,10.618,0,0,0-10.618-10.618H632.592a10.618,10.618,0,0,0-10.618,10.618v21.591Z" transform="translate(-101.412 -217.27)" fill="#fff"/>
    <path id="Path_1704" data-name="Path 1704" d="M621.974,541.439V574.9a10.618,10.618,0,0,0,10.618,10.618h54.483A10.618,10.618,0,0,0,697.693,574.9V541.439Z" transform="translate(-101.412 -217.27)" fill="#fff"/>
    <path id="Path_1705" data-name="Path 1705" d="M954.613,478.785,791.037,418.822a44.739,44.739,0,0,0-30.8,0L596.665,478.785A22.813,22.813,0,0,1,566,457.366h0a22.813,22.813,0,0,1,14.961-21.419l179.28-65.72a44.739,44.739,0,0,1,30.8,0l179.28,65.72a22.813,22.813,0,0,1,14.961,21.419h0a22.813,22.813,0,0,1-30.666,21.419Z" transform="translate(-101.412 -217.27)" fill="#3f3d56"/>
    <path id="Path_1706" data-name="Path 1706" d="M802.052,682.51H758.333a17.52,17.52,0,0,1-17.5-17.5V559.134a17.52,17.52,0,0,1,17.5-17.5h43.719a17.52,17.52,0,0,1,17.5,17.5V665.01a17.52,17.52,0,0,1-17.5,17.5ZM758.333,544.634a14.517,14.517,0,0,0-14.5,14.5V665.01a14.517,14.517,0,0,0,14.5,14.5h43.719a14.517,14.517,0,0,0,14.5-14.5V559.134a14.517,14.517,0,0,0-14.5-14.5Z" transform="translate(-101.412 -217.27)" fill="#3f3d56"/>
    <path id="Path_1707" data-name="Path 1707" d="M806.292,316.452a31.637,31.637,0,0,0-63.023,0Z" transform="translate(-101.412 -217.27)" fill="#fff"/>
    <path id="Path_1708" data-name="Path 1708" d="M743.151,319.842a31.632,31.632,0,1,0,63.264,0Z" transform="translate(-101.412 -217.27)" fill="#fff"/>
    <path id="Path_1709" data-name="Path 1709" d="M801.339,354.811H748.223a9.541,9.541,0,1,1,0-19.082h53.116a9.541,9.541,0,0,1,0,19.082Z" transform="translate(-101.412 -217.27)" fill="#ccc"/>
    <path id="Path_1710" data-name="Path 1710" d="M622.539,574.713a8.541,8.541,0,0,0,0,17.082h74.589a8.541,8.541,0,0,0,0-17.082Z" transform="translate(-101.412 -217.27)" fill="#ccc"/>
    <path id="Path_1711" data-name="Path 1711" d="M854.216,541.439V574.9a10.618,10.618,0,0,0,10.618,10.618h54.483A10.618,10.618,0,0,0,929.935,574.9V541.439Z" transform="translate(-101.412 -217.27)" fill="#fff"/>
    <path id="Path_1712" data-name="Path 1712" d="M929.935,538.049V516.458a10.618,10.618,0,0,0-10.618-10.618H864.833a10.618,10.618,0,0,0-10.618,10.618v21.591Z" transform="translate(-101.412 -217.27)" fill="#fff"/>
    <circle id="Ellipse_107" data-name="Ellipse 107" cx="6.216" cy="6.216" r="6.216" transform="translate(698.557 385.761)" fill="#3f3d56"/>
    <path id="Path_1713" data-name="Path 1713" d="M495.986,395.977,471.5,357.893l1.133-.729L495.868,393.3,514.8,357.216l1.192.625Z" fill="#3f3d56"/>
    <path id="Path_1714" data-name="Path 1714" d="M617.335,562.679H559.093v-1.01a12.456,12.456,0,0,0-12.456-12.456h0a12.456,12.456,0,0,0-12.456,12.456v1.01h-5.723a12.456,12.456,0,0,0,0,24.913h5.723v94.135c24.82-.5-.18.5,24.913,0V587.592h58.242a12.456,12.456,0,1,0,0-24.913Z" transform="translate(-101.412 -217.27)" fill="#3f3d56"/>
    <circle id="Ellipse_108" data-name="Ellipse 108" cx="4.713" cy="4.713" r="4.713" transform="translate(440.174 352.815)" fill="#fff"/>
    <path id="Path_1715" data-name="Path 1715" d="M624.737,637.244H570.88a9.605,9.605,0,0,1-9.594-9.595v-17.5a9.605,9.605,0,0,1,9.594-9.594h53.856a9.605,9.605,0,0,1,9.594,9.594v17.5a9.605,9.605,0,0,1-9.594,9.594Z" transform="translate(-101.412 -217.27)" fill="#ccc"/>
    <rect id="Rectangle_269" data-name="Rectangle 269" width="41.746" height="7.407" rx="3.703" transform="translate(475.187 397.254)" fill="#a11b05"/>
    <path id="Path_1716" data-name="Path 1716" d="M1097.81,682.73H102.185a.773.773,0,0,1,0-1.546h995.629a.773.773,0,1,1,0,1.546Z" transform="translate(-101.412 -217.27)" fill="#ccc"/>
    <path id="Path_1717" data-name="Path 1717" d="M928.8,592.795H854.216a9.541,9.541,0,0,1,0-19.082H928.8a9.541,9.541,0,0,1,0,19.082Z" transform="translate(-101.412 -217.27)" fill="#ccc"/>
    <path id="Path_1718" data-name="Path 1718" d="M1029,371.23s-18.088-1.283-55-3c-44-77-187-95.56-187-150.959H962.763a66.308,66.308,0,0,1,66.308,66.308Z" transform="translate(-101.412 -217.27)" fill="#ccc"/>
    <path id="Path_1719" data-name="Path 1719" d="M876.555,237.514a1.5,1.5,0,0,0-1.5,1.5v50.08a1.5,1.5,0,0,0,1.5,1.5h31.2a1.5,1.5,0,0,0,1.5-1.5v-50.08a1.5,1.5,0,0,0-1.5-1.5Z" transform="translate(-101.412 -217.27)" fill="#f2f2f2"/>
    <path id="Path_1720" data-name="Path 1720" d="M963.2,367.191,799.622,268.6a44.739,44.739,0,0,0-30.8,0L605.249,367.191a22.813,22.813,0,0,1-30.665-21.42h0a22.813,22.813,0,0,1,14.961-21.42L768.825,220a44.739,44.739,0,0,1,30.8,0L978.9,324.352a22.813,22.813,0,0,1,14.961,21.419h0A22.813,22.813,0,0,1,963.2,367.191Z" transform="translate(-101.412 -217.27)" fill="#ccc"/>
    <g id="people-agree" transform="translate(230.882 374.524)">
      <path id="Path_1722" data-name="Path 1722" d="M524.655,380.553,539.336,357.5l-17-9.1-4.462,17.591-31.439,16.989a6.8,6.8,0,1,0,3.869,9.248Z" transform="translate(-379.972 -276.465)" fill="#a0616a"/>
      <path id="Path_1723" data-name="Path 1723" d="M489.119,306.311c4.613,6.773-11.78,31.392-11.78,31.392-.8-1.721-8.433,17.609-9.711,16.468-3.634-3.245-9.323-12.286-12.485-12.689-1.808-.23,4.194-13.055,4.194-13.055s2.743-7.573,6.466-17.247a17.372,17.372,0,0,1,12.619-11.035S484.506,299.538,489.119,306.311Z" transform="translate(-319.028 -252.933)" fill="#3f3d56"/>
      <path id="Path_1724" data-name="Path 1724" d="M246.461,574.9h-6.972l-3.317-26.894h10.291Z" transform="translate(-76.596 -300.859)" fill="#a0616a"/>
      <path id="Path_1725" data-name="Path 1725" d="M475.851,735.42h-1.963l-7.662-3.116-4.107,3.115h0a8.751,8.751,0,0,0-8.751,8.75v.285H475.85Z" transform="translate(-304.206 -463.656)" fill="#2f2e41"/>
      <path id="Path_1726" data-name="Path 1726" d="M309.679,574.9h-6.972l-3.317-26.894H309.68Z" transform="translate(-172.206 -300.859)" fill="#a0616a"/>
      <path id="Path_1727" data-name="Path 1727" d="M539.068,735.42h-1.963l-7.662-3.116-4.107,3.115h0a8.751,8.751,0,0,0-8.751,8.75v.285h22.482Z" transform="translate(-399.816 -463.656)" fill="#2f2e41"/>
      <path id="Path_1728" data-name="Path 1728" d="M433.991,455.889l45.352,1.134c8.613,4.678,8.744,14.8,5.922,26.826,0,0,.953,7.145-.953,9.051s-2.858,1.905-1.906,5.24-4.081,8.781-3.47,9.392a24.647,24.647,0,0,1,2.041,3.946l-4.764,27.153s-3.335,47.16-4.287,48.113-1.905,0-.953,2.382,1.905,1.429.953,2.382a35.078,35.078,0,0,0-2.382,2.858H458.027s-.868-4.764-.868-5.24-.953-3.335-.953-3.811.842-1.318.842-1.318a15.677,15.677,0,0,0,.587-2.969c0-.953,2.858-37.633,2.858-37.633l-5.717-47.637-13.815,46.684s0,40.967-.953,41.92-.953.476-.476,2.382,2.382,1.429.953,2.858-1.905-.953-1.429,1.429l.476,2.382-14.291.2s-1.906-4.015-.953-5.444.9-1.039-.267-3.378-1.639-2.815-1.162-3.291.476-3.01.476-3.01l2.382-45.579s.476-48.113.476-49.542a4.751,4.751,0,0,0-.4-2.143v-1.94l1.825-6.874Z" transform="translate(-299.536 -328.879)" fill="#2f2e41"/>
      <ellipse id="Ellipse_110" data-name="Ellipse 110" cx="14.091" cy="14.091" rx="14.091" ry="14.091" transform="translate(147.607 4.525)" fill="#a0616a"/>
      <path id="Path_1729" data-name="Path 1729" d="M440.539,283.51c-3.036,1.8-4.852,5.121-5.894,8.5a80.5,80.5,0,0,0-3.46,19.234l-1.1,19.544L416.448,372.4c11.818,10,56.242,2.273,56.242,2.273s1.364-.454,0-1.818-2.691-.156-1.328-1.519.424.156-.031-1.208,0-.454.455-.909-3.519-4.546-3.519-4.546l3.637-23.887,4.546-48.183c-5.455-6.818-16.425-10.838-16.425-10.838l-2.835-5.1L443.017,277.8Z" transform="translate(-285.886 -241.49)" fill="#3f3d56"/>
      <path id="Path_1730" data-name="Path 1730" d="M443.819,219.151a6.53,6.53,0,0,0-2.32,3.259,45.856,45.856,0,0,1-.03-6.394c.166-1.5,1.22-1.833,2.439-2.223,1.1-.352,2.348-.75,2.683-2.2,4.429-4.309,12.14-4.092,17.417-2.589,2.9.827,4.574,1.89,4.724,2.512l.031.128.118.059c2.238,1.119,2.674,4.653,2.645,7.421-.055,5.214-1.855,11.136-2.869,11.617-.054.025-.067.016-.091,0h0c-1.527-1.22-3.39.093-4.209.807a14.656,14.656,0,0,0-13.122-12.431,22.991,22.991,0,0,1-3.163-.53,6.659,6.659,0,0,0-1.616-.212A4.6,4.6,0,0,0,443.819,219.151Z" transform="translate(-293.737 -208.021)" fill="#2f2e41"/>
      <path id="Path_1731" data-name="Path 1731" d="M679.181,426.237l-27.106-27.526L644.933,376.7l11.492-4.648c5.693,5.743,11.554,23.322,11.554,23.322l18.5,24.831c.148.055.3.113.44.182a5.476,5.476,0,1,1-7.739,5.855Z" transform="translate(-616.574 -287.999)" fill="#ffb8b8"/>
      <path id="Path_1732" data-name="Path 1732" d="M731.8,351.858l-14.534,4.2-.054-.01c-5.342-1.037-9.568-9.915-12.172-17.18a10.041,10.041,0,0,1,5.439-12.584h0a10.064,10.064,0,0,1,10.5,1.6l7.246,6.239Z" transform="translate(-688.815 -265.29)" fill="#a11b05"/>
      <path id="Path_1733" data-name="Path 1733" d="M437.012,570.207h7.816l3.718-30.148H437.011Z" transform="translate(-381.591 -296.985)" fill="#ffb8b8"/>
      <path id="Path_1734" data-name="Path 1734" d="M634.892,732.927h2.2l8.589-3.493,4.6,3.492h0a9.81,9.81,0,0,1,9.809,9.809v.319h-25.2Z" transform="translate(-581.465 -462.257)" fill="#2f2e41"/>
      <path id="Path_1735" data-name="Path 1735" d="M504.7,570.207h7.816l3.718-30.148H504.694Z" transform="translate(-483.956 -296.985)" fill="#ffb8b8"/>
      <path id="Path_1736" data-name="Path 1736" d="M702.575,732.927h2.2l8.589-3.493,4.6,3.492h0a9.81,9.81,0,0,1,9.809,9.809v.319h-25.2Z" transform="translate(-683.83 -462.257)" fill="#2f2e41"/>
      <path id="Path_1737" data-name="Path 1737" d="M644.847,484.767a82.968,82.968,0,0,0,1.369,21.448c2.282,10.5,2.282,40.055,2.282,40.055l5.02,57.6,15.059-1.369,4.107-96.287,14.6,32.4-1.369,4.563,1.824,1.141s-1.367,8.9-.455,8.9a10.9,10.9,0,0,1,3.194,1.369l-1.825,47,15.515-.456,5.476-66.168-5.933-37.876-.456-7.3-2.053.084-1.046-3.051-1.921-5.248Z" transform="translate(-636.026 -341.402)" fill="#2f2e41"/>
      <path id="Path_1738" data-name="Path 1738" d="M668.73,392.4l-.081-.114c-4.344-6.081,2.189-20.694,3.174-22.813l-4.15-1.347.934-7.944.443-3.542-3.172-3.172-.009-.079-1.825-15.972-2.654-10.608A23.29,23.29,0,0,1,668,304.244l6.135-5.784,7.456-11.032h12.023l4.122,7.787a17.524,17.524,0,0,1,13.559,17.892l-.934,20.422,3.658,25.427,0,4.6,4.116,4.574-.9,4.494,3.133,1.343,1.383,6.455c.572.755,4.351,5.793,4.351,7.171,0,.207-.153.407-.48.628-2.575,1.744-16.807,5.3-23.106,2.778-6.71-2.683-33.381,1.342-33.65,1.383Z" transform="translate(-660.698 -246.74)" fill="#a11b05"/>
      <ellipse id="Ellipse_111" data-name="Ellipse 111" cx="15.923" cy="15.923" rx="15.923" ry="15.923" transform="translate(12.535 5.282)" fill="#ffb8b8"/>
      <path id="Path_1739" data-name="Path 1739" d="M709.362,246.1a43.3,43.3,0,0,1-7.351-.7c-2.4-.553-7.7-4.651-9.144-7.071h0a21.275,21.275,0,0,1-2.068-6.6,19.358,19.358,0,0,1,3.781-15.276,6.116,6.116,0,0,1,2.524-2.044c.089-.032.181-.061.274-.084a7.546,7.546,0,0,0,3.812-2.225,6.218,6.218,0,0,1,.64-.626,9.3,9.3,0,0,1,3.927-1.847c2.32-.557,5.64.141,9.866,2.077a10.43,10.43,0,0,0,6.3.356.591.591,0,0,1,.551.205,4.173,4.173,0,0,0,2.806,1.2c.645.045,1.3.956,2.088,2.143.179.269.388.584.539.776l.03-.36.355.412a5.064,5.064,0,0,1-2.5,8.189,9.877,9.877,0,0,1-1.994.265c-.407.026-.829.053-1.233.113a7.635,7.635,0,0,0-5.8,4.806,2,2,0,0,1-3.038.891,3.3,3.3,0,0,0-2.991-.625,2.19,2.19,0,0,0-1,1.073,2.854,2.854,0,0,1-1.115,1.235c-1.658.8-1.867,4.535-1.36,7.665.489,3.017,1.552,5.218,2.586,5.352.8.1.886.162.94.3l.048.128-.093.116A3.261,3.261,0,0,1,709.362,246.1Z" transform="translate(-679.379 -208.712)" fill="#2f2e41"/>
      <path id="Path_1740" data-name="Path 1740" d="M579.006,371.006l7.654-9.752c7.8,2.147,21.629,14.477,21.629,14.477L636.7,388.059a5.473,5.473,0,1,1-3.325,8.868l-37.215-10.382Z" transform="translate(-535.812 -282.736)" fill="#ffb8b8"/>
      <path id="Path_1741" data-name="Path 1741" d="M688.4,352.57l-12.077-13.462-.671-9.539a10.064,10.064,0,0,1,4.995-9.376h0a10.041,10.041,0,0,1,13.339,3.162c4.267,6.431,8.858,15.126,6.5,20.029l-.024.05Z" transform="translate(-643.375 -262.071)" fill="#a11b05"/>
      <path id="Path_1742" data-name="Path 1742" d="M445.062,420.73l31.387-16.075c2.233-1.143,2.972-4.176,1.648-6.761l-20.465-39.96c-1.324-2.584-4.217-3.757-6.449-2.613L419.8,371.4c-2.233,1.143-2.972,4.176-1.649,6.761l20.465,39.96C439.936,420.7,442.83,421.873,445.062,420.73Z" transform="translate(-288.727 -279.63)" fill="#e6e6e6"/>
      <path id="Path_1743" data-name="Path 1743" d="M455.036,418.238l21.325-10.922c2.091-1.071,2.784-3.911,1.544-6.332l-17-33.2c-1.24-2.42-3.949-3.518-6.04-2.447l-25.756,13.191c-2.091,1.071-2.784,3.911-1.544,6.332L436.8,402.9C442.32,413.678,445.722,423.008,455.036,418.238Z" transform="translate(-293.337 -284.528)" fill="#fff"/>
      <path id="Path_1744" data-name="Path 1744" d="M457.087,422.34l18.888-9.674a1.181,1.181,0,0,0-1.066-2.081l-18.888,9.674a1.181,1.181,0,0,0,1.066,2.081Z" transform="translate(-305.933 -306.759)" fill="#a11b05"/>
      <path id="Path_1745" data-name="Path 1745" d="M452.979,422.9l4.31-2.208a1.181,1.181,0,0,0-1.066-2.081l-4.31,2.208a1.181,1.181,0,0,0,1.066,2.081Z" transform="translate(-285.141 -310.671)" fill="#a11b05"/>
      <path id="Path_1746" data-name="Path 1746" d="M448.87,434.829l11.945-6.118a1.181,1.181,0,0,0-1.066-2.081L447.8,432.748a1.181,1.181,0,0,0,1.066,2.081Z" transform="translate(-286.561 -314.582)" fill="#a11b05"/>
      <path id="Path_1747" data-name="Path 1747" d="M471.674,393.858l18.888-9.673A1.181,1.181,0,0,0,489.5,382.1l-18.888,9.674a1.181,1.181,0,0,0,1.066,2.081Z" transform="translate(-327.994 -292.872)" fill="#a11b05"/>
      <path id="Path_1748" data-name="Path 1748" d="M467.566,394.414l4.31-2.208a1.181,1.181,0,0,0-1.066-2.081l-4.31,2.208a1.181,1.181,0,0,0,1.066,2.081Z" transform="translate(-307.202 -296.783)" fill="#a11b05"/>
      <path id="Path_1749" data-name="Path 1749" d="M463.457,406.347l11.945-6.118a1.181,1.181,0,0,0-1.066-2.081l-11.945,6.118a1.181,1.181,0,0,0,1.066,2.081Z" transform="translate(-308.622 -300.695)" fill="#a11b05"/>
      <path id="Path_1750" data-name="Path 1750" d="M461.458,386.961l7.091-26.4L449.6,356.977l1.019,18.12-24.9,25.636a6.8,6.8,0,1,0,6.464,7.662Z" transform="translate(-279.113 -280.65)" fill="#a0616a"/>
      <path id="Path_1751" data-name="Path 1751" d="M432.718,303.13c6.432,5.078-1.823,33.48-1.823,33.48-1.278-1.4-2.763,19.328-4.326,18.622-4.44-2.006-12.578-8.924-15.716-8.36-1.794.322.086-13.712.086-13.712s.346-8.047,1-18.392a17.372,17.372,0,0,1,8.728-14.311S426.287,298.052,432.718,303.13Z" transform="translate(-241.344 -252.814)" fill="#3f3d56"/>
      <path id="Path_1752" data-name="Path 1752" d="M601.587,495.643l17.128-8.088a2.68,2.68,0,0,0,1.471-1.816,2.626,2.626,0,0,0-.488-2.237,51.537,51.537,0,0,1-9.947-21.651,2.663,2.663,0,0,0-2.609-2.147c-8.735.03-15.264,3.219-19.4,9.479a2.7,2.7,0,0,0-.353,2.242A84.3,84.3,0,0,0,598.2,494.692,2.675,2.675,0,0,0,601.587,495.643Z" transform="translate(-517.232 -330.739)" fill="#e6e6e6"/>
      <path id="Path_1753" data-name="Path 1753" d="M608.413,499.356l13.1-6.184a1.359,1.359,0,1,0-1.16-2.457l-13.1,6.184a1.359,1.359,0,1,0,1.16,2.457Z" transform="translate(-529.097 -345.796)" fill="#fff"/>
      <path id="Path_1754" data-name="Path 1754" d="M612.383,490.948l13.1-6.184a1.359,1.359,0,1,0-1.16-2.457l-13.1,6.184a1.359,1.359,0,1,0,1.16,2.457Z" transform="translate(-535.101 -341.697)" fill="#fff"/>
    </g>
  </g>
</svg>
